<svg width="88" height="88" viewBox="0 0 88 88" fill="none" xmlns="http://www.w3.org/2000/svg">
<path d="M43.9065 88C38.2099 88 32.6961 86.9595 27.4906 84.8984C21.9386 82.7009 16.986 79.4482 12.7692 75.2324C8.55248 71.0165 5.30077 66.063 3.10325 60.511C0.825684 54.7571 -0.206677 48.6256 0.0361782 42.2887C0.457309 31.2856 4.9615 20.9074 12.7174 13.0651C20.4678 5.22917 30.7842 0.610379 41.7654 0.060999C48.2488 -0.262808 54.5058 0.718618 60.3634 2.97981C66.0164 5.16187 71.0445 8.42995 75.3076 12.6931C79.5708 16.9563 82.8388 21.9844 85.0209 27.6373C87.2821 33.495 88.2635 39.7528 87.9397 46.2362C87.3903 57.2184 82.7724 67.5338 74.9365 75.2842C67.0942 83.0401 56.716 87.5443 45.7129 87.9654C45.109 87.9882 44.5059 88 43.9056 88H43.9065ZM44.1767 1.45628C43.4008 1.45628 42.6222 1.47538 41.8382 1.5154C20.0485 2.60506 2.32557 20.539 1.49058 42.3442C1.02579 54.4869 5.39627 65.802 13.7989 74.2037C21.7949 82.1997 32.4296 86.5447 43.9047 86.5447C44.4878 86.5447 45.0708 86.5338 45.6584 86.511C67.4635 85.6751 85.3975 67.9522 86.4871 46.1625C87.1084 33.736 82.7734 22.2145 74.2798 13.7209C66.3211 5.764 55.7046 1.45628 44.1767 1.45628Z" fill="white" fill-opacity="0.19"/>
<path d="M33.8991 37.5999C33.8736 37.6418 33.8254 37.6609 33.7781 37.6609C33.7563 37.6609 33.7344 37.6563 33.7153 37.649C32.7848 37.1169 31.9026 36.5112 30.943 35.8508C30.7292 35.7044 30.5118 35.5552 30.2899 35.4033C29.2557 34.7075 27.151 33.7834 22.9997 33.7834C22.5358 33.7834 22.0465 33.7952 21.5298 33.8197C21.3152 33.8307 21.0914 33.8443 20.8577 33.8588C20.311 33.8925 19.7152 33.928 19.0804 33.9371C18.9858 33.9371 18.8903 33.9389 18.7938 33.9389C18.6356 33.9389 18.4755 33.9371 18.3127 33.9325C18.0626 33.9262 17.8079 33.9134 17.5477 33.8943C15.7031 33.757 13.632 33.2549 11.5227 31.8069C10.5932 31.1811 9.65085 30.1132 9.1615 29.1191C9.11239 29.0327 9.08874 28.9226 9.076 28.8126C9.066 28.7198 9.15059 28.6443 9.24336 28.6443C9.26065 28.6443 9.27884 28.647 9.29612 28.6525C13.4428 30.3224 16.2971 30.9801 18.6938 31.3039C18.9539 31.3393 19.2077 31.3712 19.4578 31.3994C19.7171 31.4285 19.9717 31.4549 20.2228 31.4785C20.8049 31.5331 21.3688 31.5758 21.9291 31.6186C23.6746 31.7514 25.3828 31.8805 27.5002 32.3717C29.6323 32.8711 32.2045 35.6307 33.4261 36.9405C33.6135 37.1415 33.769 37.3089 33.8863 37.428C33.9354 37.4653 33.9354 37.539 33.8991 37.5999ZM78.7199 28.7007C78.6881 28.7007 78.6563 28.7089 78.6262 28.7261C75.7002 30.6344 72.5667 31.4185 69.6206 31.8141C69.3641 31.8478 69.1094 31.8796 68.8566 31.9078C68.5991 31.9378 68.3436 31.9642 68.0898 31.9888C67.1739 32.0788 66.2852 32.1416 65.4348 32.2016C63.109 32.3653 61.0734 32.509 59.5899 33.1203C58.7394 33.4641 57.2732 34.5738 55.3786 36.0091L55.1739 36.1637C54.4699 36.6985 53.8541 37.1915 53.2656 37.6627C52.0413 38.6432 50.9317 39.5309 49.3863 40.5087C48.726 40.9135 48.212 41.5638 47.9674 42.3006C47.5635 43.503 46.9769 44.6445 46.1937 45.6514C46.0536 45.8561 45.9027 46.0571 45.7508 46.259C45.3833 46.7456 45.0113 47.2386 44.7866 47.8117C44.6775 48.1209 44.6129 48.4365 44.5701 48.7567C44.5274 49.0769 44.5065 49.4016 44.4855 49.7254C44.4728 49.9146 44.461 50.1029 44.4446 50.2902C44.4301 50.7705 44.3864 51.2507 44.3427 51.731C44.3118 52.073 44.2809 52.4159 44.2609 52.7579C44.29 52.8616 44.37 52.9089 44.4528 52.9089C44.5465 52.9089 44.6447 52.8489 44.6766 52.7452C44.813 52.5214 44.9376 52.2904 45.0622 52.0593C45.3096 51.6027 45.5561 51.1452 45.8945 50.7432C45.9208 50.7114 45.9554 50.6977 45.9882 50.6977C46.0664 50.6977 46.141 50.7732 46.1091 50.866L45.9045 51.4554C45.9017 51.4645 45.8999 51.4736 45.899 51.4836C45.738 53.0353 45.5788 54.5861 45.4197 56.1379C45.094 59.3068 44.7684 62.4757 44.4319 65.6447C44.411 65.7857 44.3891 66.0622 44.5629 66.0895C44.5683 66.0904 44.5738 66.0904 44.5801 66.0904C44.6165 66.0904 44.6529 66.0731 44.6756 66.044C44.7903 65.8957 44.8576 65.7238 44.9258 65.5528C44.944 65.5055 44.9631 65.4582 44.9822 65.4118C45.4961 64.1348 46.01 62.8714 46.5239 61.6071C46.7686 60.9313 46.8668 60.2073 46.7194 59.5078C46.6612 59.1085 46.5248 58.7429 46.3838 58.3681C46.3774 58.3508 46.3711 58.3345 46.3647 58.3172C46.2674 58.0598 46.2547 57.7651 46.3411 57.4949C46.744 56.1833 47.1351 54.8827 47.5262 53.5829V53.5801C47.7354 52.9544 47.7964 52.2785 47.7846 51.6282C47.78 51.2817 47.7318 50.9451 47.6608 50.614C47.5899 50.282 47.4971 49.9564 47.4053 49.6299C47.3434 49.4107 47.2816 49.1924 47.2261 48.9714C47.2233 48.9595 47.2215 48.9468 47.2224 48.9341C47.2352 48.7376 47.2252 48.5038 47.2143 48.241C47.177 47.3641 47.126 46.1581 47.8455 44.9028C48.1529 44.3571 48.7114 44.0178 49.3226 44.0178C49.3445 44.0178 49.3654 44.0178 49.3863 44.0187C50.3914 44.0606 50.9126 44.5499 51.4692 45.0738C52.1423 45.7078 52.869 46.3909 54.5681 46.3909C54.8001 46.3909 55.0502 46.3782 55.3203 46.3509C55.7115 46.3145 55.7487 45.8352 55.394 45.7369C53.9805 45.3513 53.2311 44.9028 52.5443 44.4935C51.7794 44.036 51.0927 43.6258 49.6519 43.4002C49.5064 43.3775 49.5118 43.1647 49.6583 43.151C49.8575 43.1319 50.0512 43.1228 50.2404 43.1228C52.0404 43.1228 53.4202 43.9305 54.7273 44.6946C55.9043 45.3822 57.0212 46.0362 58.331 46.0362C58.8249 46.0362 59.3461 45.9434 59.9082 45.7251C60.1156 45.6387 60.3366 45.5405 60.5322 45.4058C60.7887 45.2339 60.7032 44.8292 60.3976 44.7919H60.3857C57.647 44.5372 56.3209 43.9032 55.0593 43.3002C53.9087 42.7499 52.8099 42.226 50.7443 42.0359C50.5951 42.0222 50.5897 41.8067 50.737 41.7867C51.652 41.6602 52.4161 41.6047 53.0746 41.6047C55.0229 41.6047 56.0425 42.0923 57.2814 42.6835C58.3092 43.1747 59.488 43.7377 61.4745 44.1543C62.022 44.2661 62.5169 44.3144 62.9653 44.3144C64.6807 44.3144 65.724 43.6031 66.4899 43C66.5299 42.9664 66.5744 42.9318 66.6208 42.8972C66.6745 42.8554 66.7309 42.8136 66.7836 42.7672C66.9474 42.6262 66.8309 42.3724 66.6281 42.3724C66.619 42.3724 66.6099 42.3733 66.5999 42.3742C65.7677 42.4825 65.0455 42.5298 64.4006 42.5298C62.5378 42.5298 61.3199 42.1368 59.9428 41.6912C58.2828 41.1554 56.3909 40.5442 52.8581 40.4578C52.7099 40.4541 52.6899 40.2413 52.8345 40.2095C54.72 39.7929 56.1753 39.6319 57.3614 39.6319C59.3752 39.6319 60.6113 40.0958 61.852 40.5606C62.9052 40.9553 63.9612 41.351 65.4993 41.4665C65.8804 41.4947 66.2352 41.5083 66.5672 41.5083C68.6283 41.5083 69.777 40.9844 70.6093 40.315C70.8467 40.124 71.0586 39.9211 71.2587 39.7156C71.3915 39.5782 71.5189 39.4409 71.6453 39.3035L71.6771 39.269C71.7081 39.2317 71.7444 39.1953 71.7817 39.158C71.8181 39.1216 71.8545 39.0852 71.8854 39.0479C71.8863 39.047 71.8872 39.0452 71.8882 39.0443C71.9955 38.9224 71.9555 38.7205 71.8163 38.6405C71.7863 38.6232 71.7517 38.6114 71.7135 38.6068C71.6953 38.6041 71.6771 38.6032 71.6589 38.6032C71.5762 38.6032 71.4879 38.6232 71.4079 38.6432C71.3006 38.6687 71.1951 38.6932 71.0905 38.7169C70.8458 38.7733 70.6084 38.8242 70.3792 38.8706C69.0166 39.1444 67.917 39.2499 66.9783 39.2499C65.4548 39.2499 64.3533 38.9725 63.229 38.6896C62.0566 38.3949 60.8596 38.0938 59.1333 38.0938C58.2046 38.0938 57.1222 38.1811 55.807 38.404C55.7997 38.4049 55.7915 38.4058 55.7833 38.4058C55.6614 38.4058 55.6087 38.2366 55.7242 38.1711C56.5082 37.7209 57.728 37.1861 59.6881 36.9368C60.202 36.8713 60.6868 36.8431 61.1498 36.8431C62.5541 36.8431 63.7593 37.1042 65.0018 37.3734C66.3234 37.6599 67.6868 37.9556 69.3759 37.9556C69.5715 37.9556 69.7716 37.9519 69.9762 37.9437C70.0472 37.941 70.1172 37.9374 70.1863 37.9328C70.4428 37.9183 70.6866 37.8955 70.9176 37.8664C71.1714 37.8346 71.4106 37.7937 71.6362 37.7464C74.1448 37.2143 74.9825 35.758 75.7502 34.4219C75.8057 34.3318 75.7602 34.1708 75.5755 34.1708C75.5574 34.1708 75.5383 34.1727 75.5173 34.1754C73.6009 34.9185 72.1901 35.276 71.0204 35.4188C70.7612 35.4506 70.5147 35.4724 70.2764 35.4843C70.0836 35.4952 69.8962 35.4997 69.7134 35.4997C69.6479 35.4997 69.5833 35.4988 69.5187 35.4979C68.7929 35.4852 68.1271 35.4015 67.4222 35.3142C66.5453 35.205 65.6076 35.0886 64.4142 35.0886C63.7484 35.0886 63.0044 35.125 62.1457 35.2187C60.8469 35.3587 59.7854 35.6052 59.1442 35.779C59.1314 35.7826 59.1196 35.7844 59.1078 35.7844C58.9941 35.7844 58.9332 35.628 59.0387 35.5552C59.6081 35.1595 60.3484 34.7639 61.5709 34.421C62.1903 34.2472 62.9862 34.1999 63.9085 34.1999C64.4142 34.1999 64.9581 34.2145 65.5321 34.229C66.1733 34.2454 66.851 34.2636 67.555 34.2636C68.0479 34.2636 68.5546 34.2545 69.0694 34.2309C69.3204 34.2199 69.5733 34.2045 69.828 34.1845C70.0772 34.1663 70.3282 34.1426 70.5802 34.1144C72.2547 33.9289 73.9793 33.5305 75.6274 32.7155C77.4629 31.8069 78.2333 30.7518 78.8818 29.1063C78.9919 28.8744 78.8627 28.7007 78.719 28.7007H78.7199ZM31.2831 37.1524C30.0298 36.5903 27.7386 35.6807 25.531 35.4151C24.928 35.3415 24.3886 35.3169 23.8656 35.3169C23.3717 35.3169 22.8924 35.3387 22.3912 35.3615C21.8382 35.3869 21.257 35.4133 20.5957 35.4133C19.9963 35.4133 19.3314 35.3915 18.5628 35.3269C18.3291 35.3078 18.0862 35.2841 17.8324 35.2569C17.5968 35.2305 17.3513 35.2005 17.0957 35.1668C15.7759 34.9894 14.1869 34.6966 12.2086 34.2245C12.1913 34.22 12.174 34.2181 12.1576 34.2181C11.9884 34.2181 11.8757 34.4355 11.9757 34.5929C11.9821 34.6047 11.9884 34.6138 11.9939 34.6229C12.0003 34.6329 12.0066 34.642 12.0121 34.6538C13.2473 36.4966 14.7144 37.2879 16.4244 37.5563C16.6627 37.5945 16.9065 37.6217 17.1548 37.6408C17.394 37.6581 17.6369 37.6681 17.8852 37.6709C17.9434 37.6727 18.0016 37.6727 18.0607 37.6727C19.2223 37.6727 20.4802 37.5326 21.8345 37.3816C23.4172 37.2042 25.1326 37.0132 26.9845 37.0132C28.3216 37.0132 29.7287 37.1124 31.2086 37.3898C31.2177 37.3916 31.2268 37.3925 31.2349 37.3925C31.3623 37.3925 31.4105 37.2097 31.2831 37.1524ZM32.8349 38.7769C31.7452 38.4449 29.9834 38.0092 28.2434 38.0092C28.1051 38.0092 27.9678 38.0119 27.8304 38.0174C26.8062 38.0611 25.9249 38.2339 24.938 38.4276C23.4135 38.7269 21.6381 39.0752 18.6956 39.0752C18.3445 39.0752 17.9771 39.0707 17.5905 39.0589C17.3558 39.0534 17.113 39.0443 16.8637 39.0334C16.6254 39.0234 16.3798 39.0107 16.127 38.9961C15.8414 38.9797 15.5458 38.9606 15.242 38.9379C15.2374 38.9379 15.2329 38.937 15.2283 38.937C15.0537 38.937 14.9755 39.1744 15.0946 39.3063C15.1119 39.3145 15.1228 39.329 15.1319 39.3408C15.1365 39.3463 15.1401 39.3517 15.1437 39.3554C15.4084 39.6401 15.6777 39.8857 15.9523 40.0967C16.1752 40.2686 16.4017 40.4178 16.6318 40.5451C16.8583 40.6706 17.0875 40.7761 17.3213 40.8625C17.9734 41.1054 18.6538 41.2064 19.3641 41.2064C20.8768 41.2064 22.5258 40.7516 24.3331 40.2531C26.5243 39.6492 28.9483 38.9806 31.6433 38.9806C32.0199 38.9806 32.4019 38.9934 32.7894 39.0216C32.793 39.0216 32.7967 39.0225 32.8003 39.0225C32.9404 39.0225 32.9749 38.8187 32.8349 38.7769ZM34.8332 40.8071C34.2211 40.566 33.1641 40.275 31.6379 40.275C31.154 40.275 30.6246 40.3041 30.0461 40.3732C29.1338 40.4842 28.3389 40.727 27.442 40.9999C25.6666 41.5402 23.4936 42.2023 19.2359 42.2023H19.1577C18.9867 42.2023 18.9494 42.5216 19.0722 42.6317L19.1213 42.6808C20.5339 43.6413 21.7881 43.9987 22.9779 43.9987C24.5678 43.9987 26.0422 43.3611 27.6294 42.6762C29.4731 41.8794 31.4678 41.0181 33.9655 41.0181C34.2301 41.0181 34.5003 41.0281 34.7768 41.049H34.7877C34.9223 41.049 34.9642 40.858 34.8332 40.8071ZM36.5032 41.6511C36.1002 41.6002 35.6109 41.5584 35.0924 41.5584C34.574 41.5584 33.9827 41.6038 33.4461 41.7321C32.7839 41.8894 32.3146 42.0823 31.7816 42.3015C30.7319 42.7344 29.4331 43.2693 25.9103 43.8314C25.531 43.8805 25.2864 44.4199 25.9958 44.6163C26.6425 44.7964 27.2274 44.8737 27.7686 44.8737C29.3066 44.8737 30.4982 44.247 31.7998 43.5621C33.1032 42.8754 34.5176 42.1314 36.5032 41.9004C36.6496 41.8831 36.6505 41.6702 36.5032 41.6511ZM38.0176 43.1683C37.8075 43.1456 37.5664 43.1283 37.3127 43.1283C36.8688 43.1283 36.3849 43.1801 35.9538 43.3438C35.5317 43.5121 35.2516 43.6995 34.9332 43.9123C34.3002 44.3353 33.5189 44.8583 31.1831 45.5277C30.9375 45.6014 30.8156 45.9943 31.3659 46.0807C31.7852 46.149 32.1554 46.1808 32.4874 46.1808C33.9764 46.1808 34.6886 45.5532 35.4526 44.8801C36.103 44.3071 36.7915 43.7004 38.0294 43.4157C38.1686 43.3839 38.1586 43.1838 38.0176 43.1683ZM42.3744 40.9835C42.2407 40.6961 42.107 40.4087 42.0097 40.1158C41.7641 39.4482 41.9133 38.7814 42.0625 38.1147C42.1434 37.7509 42.2244 37.3862 42.2416 37.0223C42.2416 36.4166 41.8905 35.9318 41.554 35.4652C41.4885 35.3742 41.423 35.2841 41.3612 35.1941C41.3321 35.1541 41.3148 35.1322 41.3002 35.1322C41.2829 35.1322 41.2702 35.1595 41.2511 35.2187C41.0465 36.1009 41.2211 37.0305 41.6004 37.8446C41.6113 37.8691 41.6149 37.8964 41.6095 37.9228C41.5977 37.9783 41.5858 38.0338 41.574 38.0893C41.4758 38.5477 41.3766 39.0079 41.3976 39.4773C41.4276 40.1049 41.6841 40.6643 41.9406 41.2236C42.1061 41.5847 42.2717 41.9449 42.3763 42.3251C42.4945 42.7817 42.4308 43.2374 42.3672 43.6977C42.3317 43.9551 42.2953 44.2125 42.2908 44.4726C42.2908 44.5408 42.3453 44.5936 42.4108 44.5936C42.4272 44.5936 42.4445 44.5909 42.4627 44.5827C42.499 44.5709 42.5109 44.5463 42.5236 44.5099C42.5618 44.3598 42.6055 44.2116 42.65 44.0624C42.761 43.6868 42.8729 43.3102 42.8902 42.9136C42.8956 42.8527 42.8974 42.7926 42.8974 42.7326C42.8974 42.1105 42.6346 41.5456 42.3744 40.9835ZM45.8845 37.9374C45.879 37.9092 45.8826 37.881 45.8954 37.8555C46.2856 37.0778 46.472 36.1491 46.2792 35.2923C46.2719 35.2532 46.2392 35.2296 46.2046 35.2296C46.1837 35.2296 46.1628 35.2378 46.1446 35.256L46.1028 35.2978C45.8381 35.5625 45.587 35.8144 45.3897 36.2183C45.3878 36.2228 45.3851 36.2274 45.3833 36.2328C45.2741 36.5157 45.2978 36.7404 45.3233 36.9769V36.9796C45.3242 36.9878 45.3251 36.9969 45.326 37.0051C45.0986 36.7622 44.662 36.422 43.968 36.3602C43.9598 36.3593 43.9507 36.3593 43.9425 36.3583C43.9389 36.3583 43.9353 36.3574 43.9307 36.3574C43.7925 36.3574 43.7588 36.5585 43.8961 36.603C44.0681 36.6585 44.2454 36.744 44.4155 36.8695C44.4273 36.8786 44.4382 36.8895 44.4464 36.9023C44.4737 36.9432 44.4937 36.9878 44.5046 37.0351C44.6074 37.5426 44.3264 38.1693 44.1072 38.6605C44.0126 38.8706 43.9298 39.0552 43.8934 39.1953C43.8898 39.2099 43.8889 39.2199 43.8889 39.228L43.8834 39.2635C43.7897 39.5755 43.747 39.9057 43.7352 40.2267V45.012C43.7352 45.0211 43.7333 45.0293 43.7315 45.0375C43.6906 45.2221 43.8561 45.4268 44.0389 45.4268C44.0717 45.4268 44.1053 45.4204 44.139 45.4058C44.1872 45.3913 44.2391 45.3776 44.2918 45.364C44.6465 45.2694 45.0549 45.1612 45.1295 44.7555C45.1659 44.4417 45.1332 44.1243 45.1004 43.8077C45.0786 43.5922 45.0568 43.3766 45.0558 43.1628V43.1565C44.9858 42.427 45.2832 41.7812 45.5816 41.1336C45.8444 40.5615 46.1091 39.9875 46.12 39.3545C46.12 38.9643 46.0318 38.5813 45.9463 38.2111C45.9254 38.1193 45.9045 38.0274 45.8845 37.9374ZM42.1007 57.5068C42.0888 57.4986 42.0761 57.4931 42.0634 57.4886C41.9524 57.4567 41.8269 57.4458 41.6995 57.4349C41.3912 57.4094 41.0765 57.3821 40.9573 57.0411C40.6535 56.2297 40.3643 55.4138 40.076 54.5998C39.854 53.9722 39.6321 53.3455 39.4038 52.7206C39.3874 52.6888 39.3747 52.6524 39.3601 52.6142C39.3165 52.495 39.2701 52.3677 39.1391 52.3677C39.1191 52.3677 39.0973 52.3704 39.0736 52.3768C38.9263 52.4386 38.878 52.5369 38.9263 52.6833C39.391 54.7953 39.8558 56.8937 40.3334 58.9921C40.3534 59.0558 40.3679 59.124 40.3825 59.1931C40.4225 59.3777 40.4634 59.5706 40.6144 59.7043C40.7618 59.8689 40.9828 59.9499 41.2047 59.9499C41.4612 59.9499 41.7177 59.8416 41.8623 59.6306C41.9333 59.536 41.9788 59.4287 42.0124 59.3168C42.0452 59.2049 42.0652 59.0867 42.0852 58.9684C42.107 58.8393 42.1298 58.7092 42.1689 58.5873C42.1825 58.52 42.2025 58.4482 42.2234 58.3745C42.3099 58.0643 42.4063 57.7169 42.1007 57.5068ZM42.7928 52.7943C42.3562 51.4736 41.9397 50.142 41.524 48.814V48.8122H41.5231C41.2875 48.0572 41.0519 47.3041 40.8127 46.5546C40.8118 46.5501 40.81 46.5455 40.8072 46.541C40.7754 46.4746 40.7536 46.4027 40.7317 46.3291C40.7217 46.2954 40.7117 46.2617 40.7008 46.2281C40.6726 46.1444 40.6017 46.1008 40.5298 46.1008C40.4743 46.1008 40.4198 46.1262 40.3825 46.179C40.3579 46.2099 40.337 46.2436 40.3152 46.2772C40.2952 46.309 40.2742 46.3418 40.2506 46.3718C40.2488 46.3745 40.247 46.3773 40.2451 46.38C39.6603 47.275 39.613 48.4875 40.1378 49.4189C40.4243 49.9828 40.9091 50.3939 41.3757 50.7896L41.4103 50.8187C41.6095 51.2043 41.7905 51.6018 41.9715 51.9984C42.1216 52.3286 42.2717 52.6569 42.4317 52.9789C42.4354 52.9871 42.439 52.9953 42.4408 53.0044C42.4627 53.0926 42.5127 53.1172 42.5745 53.1172C42.5891 53.1172 42.6055 53.1163 42.6209 53.1135C42.7683 53.089 42.842 52.9298 42.7928 52.7943Z" fill="url(#paint0_radial_498_371)"/>
<path d="M32.7552 11.0987L31.0643 11.7663L31.0707 11.7817C31.1898 12.0828 31.4554 12.3912 31.953 12.1947C32.3313 12.0455 32.677 11.8727 32.8871 11.7663C32.8925 11.7645 32.8971 11.7626 32.9025 11.7599C32.9544 11.739 33.0062 11.749 33.0262 11.8008L33.1618 12.1428C33.1945 12.2256 33.1936 12.2684 33.1063 12.3211C32.7934 12.5167 32.6015 12.6222 32.1349 12.8068C31.6164 13.0115 30.7687 13.0224 30.3648 12L30.2129 11.6162C29.8937 10.8067 30.1438 10.12 30.9379 9.80707C31.7365 9.49145 32.3877 9.86437 32.6933 10.6375L32.808 10.9277C32.8407 11.0104 32.828 11.0696 32.7552 11.0987ZM31.9684 10.8221C31.8083 10.4174 31.4936 10.2719 31.1716 10.3992C30.8496 10.5265 30.7068 10.8467 30.8687 11.2569L30.8769 11.2778L31.9766 10.844L31.9684 10.8231V10.8221Z" fill="white"/>
<path d="M35.2711 11.7535C35.0619 11.8127 34.6025 11.9118 34.2796 11.9155C34.2105 11.9173 34.1614 11.8854 34.1432 11.8209L34.0532 11.4989C34.0413 11.4561 34.0668 11.4025 34.1259 11.3861C34.1314 11.3843 34.1368 11.3834 34.1423 11.3815C34.4088 11.3415 34.9 11.2333 35.061 11.1878C35.3939 11.0941 35.4111 10.9686 35.3702 10.8231C35.342 10.7212 35.2592 10.6748 35.0573 10.6157L34.195 10.371C33.8867 10.2837 33.6238 10.0681 33.5365 9.75613C33.3864 9.21858 33.6493 8.85566 34.3315 8.66465C34.7663 8.54277 35.0273 8.52185 35.3175 8.50457C35.3866 8.50275 35.4311 8.5364 35.4484 8.60098L35.5358 8.91205C35.5539 8.97663 35.5267 9.02484 35.473 9.03939C35.4675 9.04121 35.4621 9.04212 35.4566 9.04394C35.3002 9.06486 34.8581 9.14217 34.5525 9.22767C34.2951 9.29953 34.1987 9.39049 34.2451 9.55694C34.2687 9.64244 34.3651 9.67427 34.5216 9.71702L35.3456 9.94987C35.8732 10.0972 36.0133 10.3483 36.0897 10.622C36.2207 11.0896 35.9751 11.558 35.272 11.7545L35.2711 11.7535Z" fill="white"/>
<path d="M38.7447 10.9322C38.6174 10.9786 38.3418 11.0541 38.1117 11.0968C37.5686 11.1996 37.2103 11.0741 37.0902 10.4383L36.5681 7.67595C36.5572 7.61592 36.599 7.56771 36.6573 7.54588L37.1502 7.36215C37.1557 7.36124 37.1612 7.36033 37.1666 7.35942C37.2157 7.35032 37.2703 7.39671 37.2803 7.45129L37.3822 7.98884L38.1553 7.84331C38.2153 7.83148 38.2745 7.87151 38.2854 7.93245L38.3463 8.25625C38.3572 8.31629 38.3172 8.37541 38.2572 8.38632L37.484 8.53185L37.8188 10.3019C37.8606 10.5211 37.9661 10.5411 38.2017 10.4965L38.6347 10.4147C38.7056 10.401 38.7547 10.4201 38.7656 10.4756L38.8302 10.8158C38.8402 10.8704 38.8138 10.9095 38.7447 10.934V10.9322Z" fill="white"/>
<path d="M40.3274 10.7239L39.8344 10.783C39.7734 10.7903 39.718 10.7467 39.7107 10.6857L39.6352 10.0599C39.6279 9.99899 39.6725 9.94896 39.7334 9.94169L40.2264 9.88256C40.2873 9.87529 40.3428 9.91349 40.3501 9.97443L40.4256 10.6002C40.4329 10.6612 40.3892 10.7166 40.3283 10.7239H40.3274Z" fill="white"/>
<path d="M45.3627 8.45363L44.8534 8.77744C44.3213 9.11762 44.0484 9.39049 44.0384 9.85346V9.8762L45.873 9.91531C45.934 9.91622 45.984 9.95715 45.9822 10.0181L45.9731 10.442C45.9722 10.5029 45.9203 10.552 45.8594 10.5511L43.4945 10.5011C43.4335 10.5002 43.3844 10.4483 43.3853 10.3874L43.3972 9.84073C43.4099 9.22768 43.8065 8.69467 44.2758 8.39724L44.8361 8.04069C45.2718 7.76509 45.3573 7.67777 45.3637 7.37124C45.37 7.07018 45.1826 6.95466 44.7197 6.94466C44.3904 6.93738 43.9384 6.97285 43.6027 7.00469C43.5991 7.00469 43.5954 7.00469 43.5918 7.00469C43.5309 7.00378 43.4927 6.95193 43.4936 6.89099L43.5009 6.55627C43.5018 6.50079 43.5527 6.46804 43.6091 6.45258C43.9011 6.38072 44.3704 6.32888 44.7333 6.33706C45.7093 6.35798 46.0986 6.69543 46.0831 7.38671C46.0731 7.84968 45.8266 8.15711 45.3627 8.45363Z" fill="white"/>
<path d="M48.5235 10.8776C47.6285 10.7521 47.1537 10.1618 47.3465 8.78653L47.4038 8.37814C47.5966 7.00287 48.2161 6.55991 49.1111 6.68543C50.0061 6.81095 50.48 7.40672 50.2881 8.78199L50.2308 9.19038C50.0379 10.5657 49.4194 11.0032 48.5244 10.8776H48.5235ZM49.5195 8.67375C49.6595 7.67413 49.4049 7.36215 49.0238 7.30939C48.6427 7.25664 48.3116 7.48585 48.1724 8.48547L48.1151 8.89386C47.975 9.89348 48.2306 10.2 48.6117 10.2528C48.9928 10.3055 49.323 10.0818 49.4631 9.08214L49.5204 8.67375H49.5195Z" fill="white"/>
<path d="M53.4261 9.73067L52.8549 9.92622C52.2582 10.1318 51.928 10.3337 51.8098 10.7812L51.8043 10.803L53.5789 11.2715C53.638 11.2869 53.6771 11.3379 53.6607 11.397L53.5525 11.8072C53.537 11.8663 53.4752 11.9018 53.4161 11.8863L51.1294 11.2824C51.0703 11.2669 51.0348 11.2051 51.0503 11.146L51.1894 10.6175C51.3459 10.0245 51.8562 9.59969 52.3828 9.4205L53.0104 9.20585C53.4979 9.0403 53.6016 8.97572 53.6808 8.6792C53.7581 8.38814 53.6025 8.2317 53.155 8.11345C52.8367 8.02977 52.3883 7.95701 52.0554 7.90971C52.0517 7.9085 52.0481 7.90759 52.0444 7.90698C51.9853 7.89152 51.9598 7.83239 51.9762 7.77327L52.0617 7.44947C52.0763 7.3958 52.1327 7.37579 52.1909 7.37397C52.491 7.37215 52.9604 7.43309 53.3106 7.52496C54.2547 7.77418 54.553 8.19349 54.3766 8.86203C54.2583 9.30954 53.9463 9.55057 53.4261 9.73067Z" fill="white"/>
<path d="M55.8237 12.7905C55.4399 12.6386 55.1461 12.4557 54.8796 12.2656C54.8323 12.2347 54.7995 12.1801 54.8204 12.1283L54.9478 11.8072C54.9705 11.7499 55.026 11.7299 55.0779 11.7508C55.0815 11.752 55.0848 11.7536 55.0879 11.7554C55.4808 11.9591 55.801 12.1219 56.0493 12.2211C56.4695 12.3875 56.7042 12.2647 56.8479 11.9018L56.8906 11.7927C56.9998 11.518 57.0152 11.236 56.6214 11.0796L55.7036 10.7157C55.6463 10.693 55.6218 10.6348 55.6445 10.5784L55.7737 10.2519C55.7964 10.1945 55.8546 10.17 55.911 10.1927L56.8288 10.5566C57.2226 10.713 57.3982 10.5129 57.5073 10.2373L57.5401 10.1545C57.6447 9.88984 57.6337 9.61606 57.1571 9.42596C56.7888 9.27952 56.6123 9.24041 56.1375 9.10579C56.1339 9.10458 56.1305 9.10337 56.1275 9.10215C56.0757 9.08123 56.0484 9.02848 56.0711 8.97209L56.1984 8.65101C56.2194 8.59916 56.2803 8.58097 56.3358 8.59189C56.6605 8.63645 56.9989 8.70467 57.3827 8.85748C58.1295 9.154 58.5706 9.65881 58.2604 10.442L58.2277 10.5247C58.084 10.8876 57.8175 11.0759 57.4773 11.115C57.7011 11.3834 57.742 11.7481 57.611 12.0801L57.5673 12.1892C57.2608 12.9615 56.5577 13.0852 55.8219 12.7932L55.8237 12.7905Z" fill="white"/>
<path fill-rule="evenodd" clip-rule="evenodd" d="M27.383 10.5597C27.649 10.6527 27.7893 10.9437 27.6964 11.2098L26.9125 13.453L29.1558 14.2369C29.4218 14.3299 29.5621 14.6209 29.4691 14.8869C29.3762 15.153 29.0851 15.2933 28.8191 15.2003L26.0941 14.2481C25.8281 14.1552 25.6878 13.8641 25.7807 13.5981L26.7329 10.8731C26.8259 10.6071 27.1169 10.4668 27.383 10.5597Z" fill="#1D71EE
"/>
<path fill-rule="evenodd" clip-rule="evenodd" d="M61.076 10.5597C60.81 10.6527 60.6697 10.9437 60.7626 11.2098L61.5465 13.453L59.3032 14.2369C59.0372 14.3299 58.8969 14.6209 58.9898 14.8869C59.0828 15.153 59.3738 15.2933 59.6399 15.2003L62.3649 14.2481C62.6309 14.1552 62.7712 13.8641 62.6782 13.5981L61.726 10.8731C61.6331 10.6071 61.3421 10.4668 61.076 10.5597Z" fill="#1D71EE"/>
<path d="M49.0942 27.57C48.9905 27.4964 48.8522 27.4955 48.7476 27.5655L46.9904 28.7234C46.923 28.7689 46.8758 28.8389 46.8603 28.9189C46.8439 28.9981 46.8603 29.0808 46.9067 29.1491C47.0076 29.3 47.0613 29.4756 47.0613 29.6575C47.0613 30.1641 46.6493 30.5762 46.1426 30.5762C45.636 30.5762 45.224 30.1641 45.224 29.6575C45.224 29.3601 45.3713 29.079 45.6169 28.9062C45.7552 28.8098 45.7888 28.6188 45.6915 28.4805L44.2498 26.4213C44.1361 26.2575 43.8623 26.2575 43.7487 26.4213L42.307 28.4805C42.2106 28.6188 42.2433 28.8098 42.3816 28.9062C42.6272 29.079 42.7745 29.3601 42.7745 29.6575C42.7745 30.1641 42.3625 30.5762 41.8558 30.5762C41.3492 30.5762 40.9372 30.1641 40.9372 29.6575C40.9372 29.4756 40.9899 29.3 41.0918 29.1491C41.1373 29.0817 41.1537 28.999 41.1382 28.9189C41.1227 28.8389 41.0754 28.7689 41.0081 28.7234L39.2508 27.5655C39.1453 27.4955 39.008 27.4964 38.9043 27.57C38.8006 27.6428 38.7533 27.772 38.7833 27.8948L40.0276 32.7928C40.0658 32.9474 40.215 33.0502 40.3751 33.0202C42.78 32.62 45.2167 32.62 47.6216 33.0202C47.638 33.0229 47.6553 33.0247 47.6716 33.0247C47.8099 33.0247 47.9345 32.931 47.9691 32.7928L49.2133 27.8948C49.2434 27.772 49.1961 27.6437 49.0924 27.57H49.0942Z" fill="url(#paint1_radial_498_371)"/>
<path fill-rule="evenodd" clip-rule="evenodd" d="M22.5844 15.8069C22.8231 16.108 22.7725 16.5457 22.4713 16.7844C19.5925 19.0661 17.0943 21.7905 15.07 24.8558C14.8582 25.1765 14.4266 25.2648 14.1059 25.053C13.7852 24.8412 13.6969 24.4096 13.9087 24.0889C16.0142 20.9007 18.6126 18.067 21.6069 15.6938C21.9081 15.455 22.3457 15.5057 22.5844 15.8069Z" fill="#1D71EE"/>
<path fill-rule="evenodd" clip-rule="evenodd" d="M65.4681 15.8096C65.2293 16.1107 65.2799 16.5484 65.5811 16.7871C68.4673 19.0753 70.9708 21.8085 72.9975 24.884C73.209 25.2048 73.6405 25.2935 73.9614 25.0821C74.2823 24.8706 74.371 24.4391 74.1595 24.1182C72.0515 20.9194 69.4476 18.0766 66.4456 15.6966C66.1445 15.4578 65.7068 15.5084 65.4681 15.8096Z" fill="#1D71EE"/>
<path fill-rule="evenodd" clip-rule="evenodd" d="M78.6215 36.4765C78.2444 36.5506 77.9987 36.9163 78.0728 37.2934C78.9998 42.016 78.9343 46.8798 77.8804 51.5757C77.7963 51.9507 78.032 52.3228 78.407 52.407C78.782 52.4912 79.1542 52.2554 79.2383 51.8804C80.3345 46.9962 80.4026 41.9373 79.4384 37.0253C79.3643 36.6482 78.9986 36.4025 78.6215 36.4765Z" fill="white" fill-opacity="0.19"/>
<path fill-rule="evenodd" clip-rule="evenodd" d="M9.42682 36.4765C9.80392 36.5506 10.0496 36.9163 9.97558 37.2934C9.04851 42.016 9.11401 46.8798 10.1679 51.5757C10.2521 51.9507 10.0163 52.3228 9.64135 52.407C9.26638 52.4912 8.89419 52.2554 8.81003 51.8804C7.71386 46.9962 7.64574 41.9373 8.60999 37.0253C8.68401 36.6482 9.04972 36.4025 9.42682 36.4765Z" fill="white" fill-opacity="0.19"/>
<path fill-rule="evenodd" clip-rule="evenodd" d="M44.4835 15.7304C40.1673 15.6602 35.8924 16.5801 31.9871 18.4194C28.0818 20.2586 24.6499 22.9684 21.955 26.3406C21.7151 26.6408 21.764 27.0787 22.0642 27.3186C22.3644 27.5585 22.8023 27.5096 23.0422 27.2094C25.6043 24.0033 28.8671 21.427 32.5801 19.6784C36.293 17.9297 40.3573 17.0552 44.4608 17.1219C48.5644 17.1886 52.5981 18.1949 56.2522 20.0633C59.9063 21.9318 63.0836 24.6128 65.5402 27.9005C65.7702 28.2084 66.2062 28.2715 66.5141 28.0414C66.8219 27.8114 66.885 27.3754 66.655 27.0675C64.0712 23.6095 60.7292 20.7896 56.8858 18.8243C53.0423 16.859 48.7996 15.8006 44.4835 15.7304Z" fill="white" fill-opacity="0.19"/>
<path fill-rule="evenodd" clip-rule="evenodd" d="M44.5295 72.2234C37.3577 72.3517 30.4057 69.7472 25.0837 64.9381C19.7617 60.1291 16.4683 53.4758 15.8715 46.3277C15.8395 45.9448 16.124 45.6084 16.507 45.5764C16.89 45.5445 17.2263 45.829 17.2583 46.212C17.8257 53.0079 20.9569 59.3335 26.0167 63.9056C31.0766 68.4777 37.6861 70.9539 44.5046 70.8319C51.323 70.71 57.8398 67.9989 62.7328 63.2487C67.6259 58.4985 70.5288 52.065 70.8528 45.2531C70.871 44.8692 71.197 44.5729 71.5809 44.5911C71.9647 44.6094 72.2611 44.9354 72.2429 45.3192C71.9021 52.484 68.8488 59.2509 63.7022 64.2472C58.5556 69.2435 51.7012 72.0951 44.5295 72.2234Z" fill="white" fill-opacity="0.19"/>
<path d="M9.37892 60.9235C9.19381 60.6123 8.67963 59.6152 8.49989 59.1761C7.90075 57.7114 7.97139 56.5131 9.85823 55.7414L13.5586 54.2283C13.6498 54.1908 13.7464 54.2382 13.7839 54.3294L14.2275 55.4141C14.265 55.5053 14.2293 55.6063 14.138 55.6439L10.4386 57.157C9.59443 57.5021 9.34673 57.8643 9.65077 58.6092C9.76612 58.8909 9.9566 59.2861 10.105 59.5535L14.9303 57.5799C15.0215 57.5424 15.1181 57.5898 15.1557 57.681L15.5956 58.7567C15.6332 58.8479 15.6001 58.9579 15.5098 58.9946L10.1551 61.1846C9.74913 61.35 9.57297 61.249 9.38071 60.9217L9.37892 60.9235Z" fill="white"/>
<path d="M11.9382 65.535L11.2979 64.5219C11.2452 64.4387 11.2801 64.343 11.3632 64.2903L16.6839 60.9253C16.7671 60.8725 16.861 60.8877 16.9137 60.97L17.554 61.9831C17.6068 62.0663 17.5844 62.1647 17.5013 62.2174L12.1806 65.5824C12.0974 65.6352 11.991 65.6173 11.9382 65.5342V65.535Z" fill="white"/>
<path d="M16.5069 71.2134C16.3361 71.1133 15.9274 70.7815 15.5161 70.3103C14.6218 69.2864 14.3133 67.8458 15.9167 66.4454L16.7653 65.7041C18.3687 64.3037 19.7476 64.8089 20.6418 65.8328C21.0541 66.3041 21.3277 66.7539 21.4037 66.9363C21.4591 67.0544 21.4797 67.1313 21.3849 67.2135L20.7312 67.784C20.6508 67.8547 20.5613 67.861 20.4791 67.7671L20.4674 67.7536C20.2644 67.48 19.9738 67.0803 19.651 66.7101C19.245 66.2451 18.679 66.0868 17.7829 66.8692L16.9343 67.6106C16.0383 68.393 16.1197 68.9752 16.5256 69.4402C16.8494 69.8104 17.2062 70.152 17.4503 70.3899L17.4619 70.4033C17.5442 70.4972 17.5254 70.5848 17.4449 70.6554L16.7912 71.226C16.6973 71.3082 16.616 71.2841 16.5069 71.2134Z" fill="white"/>
<path d="M23.1725 76.7497L22.179 76.0799C22.0976 76.0253 22.0905 75.9234 22.145 75.842L25.6629 70.6215C25.7175 70.5401 25.8096 70.5159 25.891 70.5705L26.8845 71.2403C26.9658 71.2948 26.9855 71.3941 26.9301 71.4764L23.4122 76.6969C23.3576 76.7783 23.253 76.8051 23.1716 76.7505L23.1725 76.7497Z" fill="white"/>
<path d="M32.2418 75.4512L30.9273 74.8414L28.7364 79.5629C28.6953 79.6523 28.588 79.6908 28.4986 79.6497L27.4362 79.1569C27.3468 79.1158 27.3074 79.0085 27.3495 78.9191L29.5404 74.1984L28.2178 73.585C28.1284 73.5438 28.0854 73.4446 28.1275 73.3551L28.5156 72.5199C28.5567 72.4305 28.6604 72.4001 28.749 72.4412L32.7721 74.3084C32.8615 74.3495 32.9125 74.4524 32.8714 74.5418L32.4833 75.377C32.4421 75.4664 32.3304 75.4933 32.2409 75.4521L32.2418 75.4512Z" fill="white"/>
<path d="M41.8549 82.9592L40.6825 82.8206C40.5851 82.809 40.5323 82.7214 40.5439 82.6239L40.7997 80.4661L38.8726 80.2372L38.6168 82.395C38.6052 82.4924 38.5247 82.564 38.4273 82.5524L37.2549 82.4137C37.1575 82.4021 37.0868 82.3127 37.0984 82.2152L37.6359 77.6868C37.8254 76.0879 38.8359 75.8483 40.0253 75.9896L40.6736 76.0665C41.8638 76.2077 42.7804 76.6763 42.5908 78.2752L42.0534 82.8036C42.0418 82.9011 41.9523 82.9717 41.8549 82.9601V82.9592ZM41.0814 78.0946C41.1395 77.6063 41.0152 77.4382 40.518 77.3792L39.8697 77.3023C39.3814 77.2442 39.2124 77.3774 39.1543 77.8657L39.0219 78.9843L40.949 79.2133L41.0814 78.0946Z" fill="white"/>
<path d="M49.3235 82.5854C49.142 82.6632 48.6323 82.7965 48.0081 82.8483C46.6533 82.9619 45.3102 82.3574 45.1322 80.2363L45.0375 79.1131C44.8595 76.992 46.0828 76.18 47.4376 76.0665C48.0618 76.0137 48.5858 76.0593 48.778 76.1067C48.9059 76.1317 48.9801 76.1613 48.9909 76.2864L49.0633 77.1512C49.0723 77.2585 49.0249 77.3336 48.8997 77.3443C48.8997 77.3443 48.8907 77.3443 48.8818 77.3461C48.5411 77.3479 48.0475 77.3443 47.5565 77.3855C46.9413 77.4373 46.4781 77.7995 46.5782 78.9843L46.673 80.1075C46.7723 81.2924 47.29 81.5723 47.9044 81.5204C48.3944 81.4793 48.8809 81.3934 49.2171 81.338C49.2261 81.338 49.235 81.3362 49.235 81.3362C49.3593 81.3255 49.4192 81.3925 49.4282 81.4998L49.5006 82.3646C49.5113 82.4898 49.4434 82.5398 49.3217 82.5863L49.3235 82.5854Z" fill="white"/>
<path d="M57.3269 80.7057L56.1957 81.042C56.1018 81.0697 56.0187 81.0107 55.9901 80.9168L55.3703 78.8341L53.5103 79.3877L54.13 81.4703C54.1578 81.5642 54.1122 81.6626 54.0183 81.6903L52.8871 82.0265C52.7932 82.0543 52.693 82.0006 52.6644 81.9058L51.3642 77.5339C50.9054 75.9913 51.738 75.3707 52.8862 75.0291L53.5121 74.8431C54.6612 74.5015 55.6887 74.5695 56.1474 76.1121L57.4477 80.484C57.4754 80.5779 57.4217 80.678 57.3269 80.7066V80.7057ZM54.6898 76.5449C54.5494 76.0736 54.3688 75.9681 53.8895 76.1112L53.2635 76.2972C52.7923 76.4376 52.6894 76.6263 52.8298 77.0975L53.1509 78.1777L55.0109 77.6242L54.6898 76.544V76.5449Z" fill="white"/>
<path d="M62.7075 78.2699C62.0601 78.6329 61.3313 78.9593 60.9808 79.0845C60.8198 79.1444 60.7018 79.1176 60.6016 78.9378L57.7115 73.7817C57.6113 73.6019 57.6497 73.4884 57.7848 73.382C58.0736 73.1477 58.7336 72.697 59.381 72.3339C60.9334 71.4638 62.3284 71.758 63.2512 73.4043L63.8155 74.4103C64.7384 76.0566 64.2608 77.3998 62.7084 78.2699H62.7075ZM61.917 74.1519C61.3268 73.0985 60.717 73.0717 60.015 73.4651C59.8201 73.5742 59.575 73.7218 59.4695 73.7915L61.5111 77.4346C61.6246 77.381 61.8786 77.2486 62.0735 77.1395C62.7755 76.7461 63.0706 76.2113 62.4804 75.1588L61.9161 74.1528L61.917 74.1519Z" fill="white"/>
<path d="M70.7584 72.2552C70.5518 72.494 70.254 72.8472 69.5252 73.4812C68.6542 74.2377 67.692 74.684 66.6234 73.4562L64.6758 71.2152C63.608 69.9865 64.1965 69.0959 65.0665 68.3394C65.7953 67.7054 66.1799 67.4666 66.4455 67.2949C66.5519 67.226 66.6216 67.2252 66.6976 67.3128L67.2431 67.9405C67.3075 68.0148 67.2994 68.1283 67.2252 68.1927L65.8553 69.3838C65.5378 69.6593 65.5172 69.8676 65.8222 70.2182L66.356 70.8325L68.1043 69.3132C68.1785 69.2488 68.2921 69.2569 68.3564 69.3311L68.9135 69.9722C68.9779 70.0465 68.9699 70.16 68.8957 70.2244L67.1474 71.7437L67.7698 72.4591C68.0748 72.8097 68.2831 72.8186 68.6006 72.5423L69.9705 71.3512C70.0448 71.2868 70.1583 71.2948 70.2227 71.369L70.7682 71.9968C70.8442 72.0844 70.8388 72.1604 70.7566 72.2561L70.7584 72.2552Z" fill="white"/>
<path d="M76.8258 64.9422L76.1265 65.8936C76.0791 65.9589 75.9771 65.9616 75.8975 65.9035L72.8929 63.6947C72.8428 63.658 72.8196 63.6741 72.8088 63.6884C72.7927 63.7099 72.7972 63.735 72.8169 63.7832L73.5296 65.3052C73.5788 65.4188 73.5618 65.5181 73.4929 65.6111L73.0691 66.1878C73.0002 66.2817 72.9117 66.3273 72.7874 66.3139L71.1223 66.0886C71.0704 66.0841 71.0454 66.0877 71.0293 66.1091C71.0186 66.1235 71.0096 66.1503 71.0606 66.1878L74.0652 68.3957C74.1448 68.4538 74.1725 68.5522 74.1252 68.6166L73.4259 69.568C73.3838 69.6253 73.3141 69.6745 73.2354 69.6163L68.2277 65.9357C68.0765 65.8248 68.0622 65.6477 68.1731 65.4957L68.6712 64.8188C68.7821 64.6676 68.9288 64.6193 69.0987 64.6444L71.9629 65.0513C72.0416 65.0647 72.0934 65.07 72.1149 65.0405C72.1364 65.0119 72.1158 64.9636 72.0791 64.8921L70.8362 62.28C70.761 62.1253 70.7637 61.9715 70.8746 61.8204L71.3727 61.1435C71.4836 60.9923 71.6642 60.9583 71.8153 61.0692L76.8159 64.7445C76.8955 64.8027 76.8687 64.8831 76.8266 64.9413L76.8258 64.9422Z" fill="white"/>
<path d="M74.6688 54.4564L77.4696 57.7337L79.6944 58.6718C79.7848 58.7102 79.8313 58.8068 79.7928 58.898L79.3269 60.0024C79.2885 60.0927 79.1901 60.1196 79.0998 60.0811L76.8749 59.143L72.5728 59.4256C72.5415 59.4319 72.5164 59.4212 72.4914 59.4104C72.4252 59.3827 72.4055 59.3156 72.4359 59.2414L72.9465 58.0306C72.9814 57.9483 73.0646 57.9349 73.1522 57.9332L75.8045 57.858L74.0035 55.9149C73.9436 55.8505 73.898 55.7736 73.9329 55.6913L74.4399 54.4886C74.4712 54.4143 74.5329 54.3821 74.5991 54.4099C74.6241 54.4206 74.6483 54.4304 74.6662 54.4573L74.6688 54.4564Z" fill="white"/>
<defs>
<radialGradient id="paint0_radial_498_371" cx="0" cy="0" r="1" gradientUnits="userSpaceOnUse" gradientTransform="translate(44.0002 47.3678) scale(28.0199 28.0202)">
<stop stop-color="white"/>
<stop offset="0.55" stop-color="#FDFDFB"/>
<stop offset="0.74" stop-color="#F3F1F0"/>
<stop offset="0.88" stop-color="#E7E3E1"/>
<stop offset="0.99" stop-color="#D9D2CF"/>
<stop offset="1" stop-color="#D8D0CE"/>
</radialGradient>
<radialGradient id="paint1_radial_498_371" cx="0" cy="0" r="1" gradientUnits="userSpaceOnUse" gradientTransform="translate(43.9997 29.6616) scale(4.39322 4.39263)">
<stop stop-color="#FECB7C"/>
<stop offset="0.18" stop-color="#F6C473"/>
<stop offset="0.5" stop-color="#E9B65D"/>
<stop offset="0.9" stop-color="#D6A239"/>
<stop offset="1" stop-color="#CF9C30"/>
</radialGradient>
</defs>
</svg>
